<svg width="18" height="19" viewBox="0 0 18 19" fill="none" xmlns="http://www.w3.org/2000/svg">
  <path d="M0.100389 9.94543L0.100384 9.94473C0.0454258 1.99459 9.72053 -2.04728 15.325 3.5868C20.8699 9.21327 16.8664 18.7665 8.95738 18.7595H8.95729C7.55596 18.7596 6.21891 18.4454 4.98245 17.8257C3.74827 17.2072 2.25518 17.4572 1.26698 18.4454L1.12946 18.5829C1.01412 18.6983 0.85989 18.7595 0.702907 18.7595C0.625234 18.7595 0.546932 18.7445 0.472266 18.7136C0.246934 18.6203 0.1 18.4004 0.1 18.1565L0.100389 9.94543ZM5.52284 16.7475C6.59211 17.2834 7.75112 17.5546 8.96521 17.5535C15.7737 17.5634 19.2641 9.24718 14.4677 4.43517L14.4676 4.43508C9.60349 -0.432644 1.27119 3.05409 1.30645 9.93578L1.30647 9.93944L1.30648 9.94205L1.30617 16.7289L1.30616 16.8966L1.45373 16.8168C2.10531 16.4645 2.83011 16.2827 3.55978 16.2827C4.22728 16.2827 4.89874 16.4347 5.52284 16.7475ZM6.78987 9.86053C6.78987 10.29 6.44224 10.6383 6.01302 10.6393C4.9781 10.5963 4.97825 9.12456 6.01302 9.08173C6.44224 9.08278 6.78987 9.43106 6.78987 9.86053ZM8.25536 9.85857C8.25642 9.42935 8.6047 9.08172 9.03417 9.08172C9.46363 9.08172 9.81192 9.42935 9.81297 9.85857C9.77014 10.8933 8.29836 10.8935 8.25536 9.85857ZM12.8361 9.85857C12.7932 10.8933 11.3215 10.8935 11.2785 9.85857C11.2795 9.42935 11.6278 9.08172 12.0573 9.08172C12.4867 9.08172 12.835 9.42935 12.8361 9.85857Z" fill="black" stroke="black" stroke-width="0.2" />
</svg>