<svg width="20" height="18" viewBox="0 0 20 18" fill="none" xmlns="http://www.w3.org/2000/svg">
  <path d="M9.866 3.48385L10 3.75023L10.134 3.48385C11.0568 1.6494 12.5995 0.687109 14.6094 0.687109C16.0495 0.687109 17.3652 1.2208 18.3179 2.18555C19.3171 3.19746 19.85 4.58644 19.85 6.21187C19.85 8.13904 18.623 10.2914 16.1385 12.6103C13.8893 14.7097 11.4219 16.1846 10.9515 16.4581L11.027 16.5878L10.9515 16.4581C10.8531 16.5154 10.6941 16.6073 10.5597 16.6851L10.3872 16.7847L10.3347 16.8149L10.3205 16.8232L10.3168 16.8253L10.3158 16.8259L10.3156 16.826L10.3155 16.826L10.3155 16.8261L10.3905 16.956L10.3155 16.8261L10.0001 17.0081L9.68467 16.8262L9.60973 16.9561L9.68465 16.8261L9.68464 16.8261L9.68458 16.8261L9.68434 16.826L9.6834 16.8254L9.67968 16.8233L9.6654 16.815L9.61294 16.7848L9.44032 16.6851C9.30574 16.6074 9.14668 16.5155 9.04817 16.4582C8.5778 16.1847 6.11058 14.7099 3.86126 12.6103C1.37695 10.2914 0.15 8.13905 0.15 6.21187C0.15 4.58644 0.682939 3.19746 1.68212 2.18559C2.63483 1.2208 3.95051 0.687109 5.39062 0.687109C7.40055 0.687109 8.94318 1.6494 9.866 3.48385ZM10.3169 15.3667L10.3169 15.3667C10.769 15.1039 13.1259 13.6952 15.2771 11.6873C17.4169 9.69013 18.5875 7.79653 18.5875 6.21187C18.5875 4.96857 18.183 3.90235 17.4785 3.14557C16.7732 2.388 15.7756 1.94961 14.6094 1.94961C13.8554 1.94961 13.1913 2.12569 12.6268 2.48087C12.0626 2.83591 11.6066 3.3644 11.2596 4.05576C10.8281 4.91548 10.6855 5.79341 10.6446 6.1273H9.35541C9.31398 5.78773 9.16848 4.89063 8.72053 4.0166C8.36844 3.32949 7.91894 2.81038 7.3611 2.46389C6.80305 2.11727 6.14654 1.94961 5.39062 1.94961C4.22436 1.94961 3.22677 2.388 2.52154 3.14557C1.81705 3.90235 1.4125 4.96857 1.4125 6.21187C1.4125 7.79653 2.58304 9.69013 4.72273 11.6873L4.82508 11.5777C6.96414 13.5743 9.30969 14.9763 9.75816 15.2371L9.68274 15.3667C9.68275 15.3667 9.68276 15.3667 9.68276 15.3667C9.74607 15.4036 9.83436 15.4547 9.92482 15.507L9.99993 15.5504L10.075 15.5069L10.3169 15.3667Z" fill="black" stroke="black" stroke-width="0.3" />
</svg>