<svg width="18" height="19" viewBox="0 0 18 19" fill="none" xmlns="http://www.w3.org/2000/svg">
  <path d="M16.4405 18.1075L15.3452 5.90959C15.3153 5.57648 15.0361 5.32132 14.7017 5.32132H12.443V4.30259C12.443 2.404 10.8984 0.859375 8.99993 0.859375C7.10151 0.859375 5.55714 2.404 5.55714 4.30259V5.32132H3.29683C2.96243 5.32132 2.68324 5.57648 2.65335 5.90959L1.55373 18.1555C1.53754 18.3362 1.59801 18.5153 1.72042 18.6492C1.84283 18.7831 2.01589 18.8593 2.19722 18.8593H15.8014C15.8019 18.8593 15.8026 18.8593 15.8032 18.8593C16.16 18.8593 16.4492 18.57 16.4492 18.2132C16.4491 18.1773 16.4462 18.1419 16.4405 18.1075ZM6.84928 4.30259C6.84928 3.11649 7.81408 2.15152 9.00001 2.15152C10.186 2.15152 11.1509 3.11649 11.1509 4.30259V5.32132H6.84928V4.30259ZM2.90394 17.5672L3.88751 6.61346H5.55714V7.76881C5.55714 8.12562 5.84632 8.41489 6.20321 8.41489C6.5601 8.41489 6.84928 8.12562 6.84928 7.76881V6.61346H11.1509V7.76881C11.1509 8.12562 11.4401 8.41489 11.797 8.41489C12.1539 8.41489 12.4431 8.12562 12.4431 7.76881V6.61346H14.1111L15.0947 17.5672H2.90394Z" fill="black" />
</svg>