<svg width="18" height="18" viewBox="0 0 18 18" fill="none" xmlns="http://www.w3.org/2000/svg">
  <mask id="path-1-inside-1_11502_120504" fill="white">
    <path fill-rule="evenodd" clip-rule="evenodd" d="M12.5197 10.9709H11.7273L11.4519 10.6975C12.4249 9.56286 13.0166 8.09196 13.0166 6.48035C13.0166 2.8979 10.1127 -0.00597763 6.53028 -0.00597763C2.94783 -0.00597763 0.0439453 2.8979 0.0439453 6.48035C0.0439453 10.0628 2.94783 12.9667 6.53028 12.9667C8.14188 12.9667 9.61178 12.3759 10.7464 11.404L11.0218 11.6774V12.4677L16.0093 17.4482L17.4972 15.9604L12.5197 10.9709ZM6.53054 10.9712C4.04976 10.9712 2.04 8.96146 2.04 6.48069C2.04 4.00091 4.04976 1.99015 6.53054 1.99015C9.01031 1.99015 11.0211 4.00091 11.0211 6.48069C11.0211 8.96146 9.01031 10.9712 6.53054 10.9712Z" />
  </mask>
  <path fill-rule="evenodd" clip-rule="evenodd" d="M12.5197 10.9709H11.7273L11.4519 10.6975C12.4249 9.56286 13.0166 8.09196 13.0166 6.48035C13.0166 2.8979 10.1127 -0.00597763 6.53028 -0.00597763C2.94783 -0.00597763 0.0439453 2.8979 0.0439453 6.48035C0.0439453 10.0628 2.94783 12.9667 6.53028 12.9667C8.14188 12.9667 9.61178 12.3759 10.7464 11.404L11.0218 11.6774V12.4677L16.0093 17.4482L17.4972 15.9604L12.5197 10.9709ZM6.53054 10.9712C4.04976 10.9712 2.04 8.96146 2.04 6.48069C2.04 4.00091 4.04976 1.99015 6.53054 1.99015C9.01031 1.99015 11.0211 4.00091 11.0211 6.48069C11.0211 8.96146 9.01031 10.9712 6.53054 10.9712Z" fill="black" fill-opacity="0.38" />
  <path d="M11.7273 10.9709V11.2709H11.6037L11.516 11.1838L11.7273 10.9709ZM11.4519 10.6975L11.2405 10.9104L11.0426 10.7139L11.2242 10.5022L11.4519 10.6975ZM10.7464 11.404L10.5512 11.1761L10.7614 10.9961L10.9578 11.1911L10.7464 11.404ZM11.0218 11.6774L11.2332 11.4645L11.3218 11.5525V11.6774H11.0218ZM11.0218 12.4677L10.8098 12.68L10.7218 12.5921V12.4677H11.0218ZM16.0093 17.4482L16.2214 17.6604L16.0094 17.8724L15.7973 17.6605L16.0093 17.4482ZM17.4972 15.9604L17.7096 15.7485L17.9212 15.9606L17.7093 16.1725L17.4972 15.9604ZM12.5197 11.2709H11.7273V10.6709H12.5197V11.2709ZM11.516 11.1838L11.2405 10.9104L11.6633 10.4846L11.9387 10.758L11.516 11.1838ZM11.2242 10.5022C12.1527 9.41935 12.7166 8.01696 12.7166 6.48035H13.3166C13.3166 8.16695 12.697 9.70637 11.6796 10.8928L11.2242 10.5022ZM12.7166 6.48035C12.7166 3.06359 9.94704 0.294022 6.53028 0.294022V-0.305979C10.2784 -0.305979 13.3166 2.73222 13.3166 6.48035H12.7166ZM6.53028 0.294022C3.11351 0.294022 0.343945 3.06359 0.343945 6.48035H-0.256055C-0.256055 2.73222 2.78214 -0.305979 6.53028 -0.305979V0.294022ZM0.343945 6.48035C0.343945 9.89712 3.11351 12.6667 6.53028 12.6667V13.2667C2.78214 13.2667 -0.256055 10.2285 -0.256055 6.48035H0.343945ZM6.53028 12.6667C8.06698 12.6667 9.4684 12.1037 10.5512 11.1761L10.9416 11.6318C9.75517 12.6481 8.21678 13.2667 6.53028 13.2667V12.6667ZM10.9578 11.1911L11.2332 11.4645L10.8105 11.8903L10.535 11.6169L10.9578 11.1911ZM11.3218 11.6774V12.4677H10.7218V11.6774H11.3218ZM11.2338 12.2555L16.2213 17.236L15.7973 17.6605L10.8098 12.68L11.2338 12.2555ZM15.7972 17.2361L17.285 15.7482L17.7093 16.1725L16.2214 17.6604L15.7972 17.2361ZM17.2848 16.1723L12.3073 11.1828L12.732 10.759L17.7096 15.7485L17.2848 16.1723ZM6.53054 11.2712C3.88408 11.2712 1.74 9.12714 1.74 6.48069H2.34C2.34 8.79577 4.21545 10.6712 6.53054 10.6712V11.2712ZM1.74 6.48069C1.74 3.83527 3.88403 1.69015 6.53054 1.69015V2.29015C4.21549 2.29015 2.34 4.16655 2.34 6.48069H1.74ZM6.53054 1.69015C9.17599 1.69015 11.3211 3.83523 11.3211 6.48069H10.7211C10.7211 4.1666 8.84462 2.29015 6.53054 2.29015V1.69015ZM11.3211 6.48069C11.3211 9.12719 9.17595 11.2712 6.53054 11.2712V10.6712C8.84467 10.6712 10.7211 8.79573 10.7211 6.48069H11.3211Z" fill="#F6F6F6" mask="url(#path-1-inside-1_11502_120504)" />
</svg>